<svg xmlns="http://www.w3.org/2000/svg" version="1.1" xmlns:xlink="http://www.w3.org/1999/xlink" xmlns:svgjs="http://svgjs.dev/svgjs" width="1000" height="1125" viewBox="0 0 1000 1125"><g transform="matrix(1,0,0,1,1.7053025658242404e-13,0)"><svg viewBox="0 0 320 360" data-background-color="#ffffff" preserveAspectRatio="xMidYMid meet" height="1125" width="1000" xmlns="http://www.w3.org/2000/svg" xmlns:xlink="http://www.w3.org/1999/xlink"><g id="tight-bounds" transform="matrix(1,0,0,1,0,0)"><svg viewBox="0 0 320 360" height="360" width="320"><g><svg></svg></g><g><svg viewBox="0 0 320 360" height="360" width="320"><g><path xmlns="http://www.w3.org/2000/svg" d="M20.961 227.22l3.726 4.658-1.863-6.056c-0.466-2.795-3.726 0.466-1.863 1.398M25.153 224.425c1.397 2.329 2.795 4.658 2.795 6.987 0 3.261 2.795 4.658 5.123 5.589-3.261-3.726-5.124-13.974-7.918-12.576M204.017 26.929c7.918 0 15.371-0.932 23.756 0.931 20.495 5.124 37.729 15.371 49.374 29.811l32.606 52.169c1.397 13.042 4.192 27.482 3.726 43.319 3.261 0 2.795-4.658 6.521-5.59-3.726 9.316-5.59 20.961-6.521 34.469-2.329-7.453 0-18.632 0.466-24.687-3.261 5.124-5.124 1.397-5.124-0.932 0.466-3.726-1.397-3.261-2.795-4.658-5.124-4.658-8.384-9.782-12.11-17.7 2.329-6.055 2.795-14.905-4.658-19.563-2.329-1.397-5.124-3.726-6.521-7.453-1.863-5.124-5.124-11.179-4.193-19.097 0.466-2.329-6.987 5.124-11.179 1.863-18.166-12.576-36.332-27.016-58.224-39.127-11.645 0-20.029-4.192-24.221-9.316-3.726-4.658-0.932-10.713 4.658-11.179 3.261 0 6.987-0.932 9.782 0.932 0.466-1.863 2.329-4.192 4.657-4.192M157.904 16.215l0.932 0.466c4.658 0.932 6.987 7.453 12.11 5.124 0 3.261 0.466 6.521-0.466 8.85-1.397 3.726-5.59 3.726-8.85 3.726-31.208-1.863-49.374 11.179-68.471 22.358-5.124 3.261-10.713 5.59-14.906 9.782-20.029 18.632-41.921 35.866-47.045 70.335l-4.192 38.195c-0.466 4.192-5.124 8.384-4.192 13.508l3.26 22.824c-3.261-3.261-5.124 0.932-4.192 2.795 0.466 1.397 2.329 6.055 5.124 1.863 3.726 6.987 7.453 20.495 12.576 26.55 15.837 18.632 36.332 35.4 53.101 52.169 4.192-0.932 7.453-0.932 8.384-3.727 1.397 2.795-1.397 5.59-3.726 6.056 7.453 4.658 15.837 8.85 27.016 9.781 14.44 0.932 27.948 3.261 40.524 6.522 6.521-1.863 13.042-2.795 20.029-3.261 2.329 0 3.726-3.726 6.521-4.658l0.466-4.658c2.795 4.192 2.329-1.397 0.466-4.192 3.261 2.795 4.192 5.124 5.589 6.987 0-1.397 3.726-6.521 3.727-0.466l0.931-6.055c1.397-0.932 1.863 5.124 3.261 0.931 1.397-4.192 4.192-0.932 6.987-2.329-0.932 1.863-0.466 5.59 2.794 3.261l3.727-3.261c2.329 5.59 6.055 3.261 7.918 2.329 20.495-13.042 40.99-28.413 60.553-43.784l-0.466 6.055 2.329-7.453c2.329 2.329 4.192 0.466 5.124-0.931 2.795-4.658 6.521-9.316 12.577-13.508-7.453 20.029-16.303 35.866-27.482 48.908l-4.658 5.59c0 3.261-0.932 7.453-4.658 7.918-1.863 0.466-5.59-0.932-8.384 1.863-1.397 1.863 3.261 5.59-0.466 2.795-3.261-2.329-6.521 0-10.248 0.932-2.795 0.932 1.863 3.726 2.795 5.589 0.932 1.863 1.863 3.726 1.398 6.056l-5.124-5.59c-6.055 3.261-9.782 9.316-14.906 13.974-2.329 1.863-1.397 5.124-1.397 7.918-3.261 0-6.987-0.932-8.85 0.932-1.397 1.863-0.932 4.658-0.932 7.453-4.658-0.466-5.124-7.453-9.315-6.056-4.192 0.932-8.85 1.397-12.577 3.727 2.795 5.59-4.658 2.329-3.726 3.26-6.987-4.192-13.042-7.453-20.495-4.658-15.837-5.124-35.4-2.795-49.84-0.931 0-2.329 0.466-4.658-0.466-5.124-0.932 2.329-3.726 1.397-3.26 1.397-8.85-6.055-17.7-9.782-27.016-14.905-8.384 0.932-16.303-3.261-18.632-5.59-6.521-6.055-13.974-2.795-20.029-4.192-13.042-3.261-17.7-16.769-19.098-26.084-0.932-4.658-4.658-6.521-6.055-6.056-6.055-19.563-15.371-37.263-22.824-55.429-1.863-4.658-1.397-9.316-1.397-14.44 2.329 0.932 4.658 0.466 4.192-2.794-2.329-15.371-7.918-27.016-13.974-38.195 3.261-15.837 3.726-34.469 11.179-48.443 6.521-12.576 18.632-19.098 27.016-29.811 2.795-3.726 2.795-8.85 5.59-12.11 9.316-9.316 18.632-19.098 28.879-27.482 4.658-3.726 10.247 0 17.234-1.397 2.329-8.384 11.645-15.837 20.495-13.508 3.726 0.932 11.179-8.85 13.508-9.782 3.726-1.397 1.863 3.726 1.863 6.987 8.85-6.987 20.961-10.713 32.14-14.906" fill="#ffffff" fill-rule="nonzero" stroke="none" stroke-width="1" stroke-linecap="butt" stroke-linejoin="miter" stroke-miterlimit="10" stroke-dasharray="" stroke-dashoffset="0" font-family="none" font-weight="none" font-size="none" text-anchor="none" style="mix-blend-mode: normal" data-fill-palette-color="tertiary"></path></g><g transform="matrix(1,0,0,1,64,123.30349521674546)"><svg viewBox="0 0 192 113.3930095665091" height="113.3930095665091" width="192"><g><svg viewBox="0 0 192 113.3930095665091" height="113.3930095665091" width="192"><g><svg viewBox="0 0 192 113.3930095665091" height="113.3930095665091" width="192"><g transform="matrix(1,0,0,1,0,68.53683130857527)"><svg viewBox="0 0 192 44.85617825793382" height="44.85617825793382" width="192"><g id="textblocktransform"><svg viewBox="0 0 192 44.85617825793382" height="44.85617825793382" width="192" id="textblock"><g><svg viewBox="0 0 192 44.85617825793382" height="44.85617825793382" width="192"><g transform="matrix(1,0,0,1,0,0)"><svg width="192" viewBox="-3.1500000953674316 -51.25 222.12998962402344 51.900001525878906" height="44.85617825793382" data-palette-color="#4b91f1"><path d="M39.95-5.45Q40.15-4.95 40.15-4.5L40.15-4.5Q40.15-3.35 39.1-2.23 38.05-1.1 36.58-0.4 35.1 0.3 33.95 0.3L33.95 0.3Q31.35 0.3 30.18-2.88 29-6.05 28.35-10.6L28.35-10.6Q28.2-11.65 27.8-11.98 27.4-12.3 26.35-12.3L26.35-12.3 19.45-12.25Q17.95-12.25 15.75-12.35L15.75-12.35 15.15-11.4Q12.55-7.2 10.83-4.88 9.1-2.55 6.95-1 4.8 0.55 2.15 0.55L2.15 0.55Q0.3 0.55-0.88-0.15-2.05-0.85-2.6-1.85-3.15-2.85-3.15-3.75L-3.15-3.75Q-3.15-4.7-2.65-5.48-2.15-6.25-1.5-6.6L-1.5-6.6Q-1.5-4.45-0.48-3.13 0.55-1.8 2.5-1.8L2.5-1.8Q5.2-1.8 7.65-4.42 10.1-7.05 13.5-12.55L13.5-12.55Q10.85-12.85 10.7-13.55L10.7-13.55Q10.6-13.8 10.83-14.4 11.05-15 11.35-15.3L11.35-15.3Q12.1-15 14.8-14.65L14.8-14.65Q15.4-15.7 16.4-17.3L16.4-17.3Q25-31.55 27.5-35.5L27.5-35.5Q28.05-36.4 28.55-36.7 29.05-37 29.65-37L29.65-37Q30.45-37 31.3-36.75L31.3-36.75Q30.25-34.9 30.15-30.5L30.15-30.5 30.1-28.05Q30.1-22.95 30.5-16.7L30.5-16.7Q30.95-9.6 31.88-5.98 32.8-2.35 34.95-2.35L34.95-2.35Q36-2.35 37.38-3.23 38.75-4.1 39.95-5.45L39.95-5.45ZM22.85-14.15Q24.2-14.15 27.95-14.3L27.95-14.3Q27.85-18 27.78-22.48 27.7-26.95 27.65-30.25L27.65-30.25 27.65-31.9Q21.9-22.25 17.05-14.4L17.05-14.4Q20.3-14.15 22.85-14.15L22.85-14.15ZM48.4 0.35Q46.65 0.35 45.27-0.83 43.9-2 43.9-4.3L43.9-4.3Q44.65-6.7 46.5-14.95L46.5-14.95Q47.4-19 47.6-19.8L47.6-19.8Q48.25-20.9 49.4-20.9L49.4-20.9Q50.15-20.9 50.15-20.4L50.15-20.4Q49.8-19.15 49.17-16.43 48.55-13.7 48.2-12.15L48.2-12.15Q46.85-5.95 46.35-4.2L46.35-4.2Q46.35-3.05 47.02-2.43 47.7-1.8 48.8-1.8L48.8-1.8Q51.3-1.8 53.82-3.58 56.35-5.35 58.27-7.7 60.2-10.05 61.15-11.75L61.15-11.75Q61.45-11.65 61.55-11.43 61.65-11.2 61.65-10.65L61.65-10.65Q61.65-9.9 61.15-9.1L61.15-9.1Q58.45-4.85 55.1-2.25 51.75 0.35 48.4 0.35L48.4 0.35ZM50.7-27.15Q50-27.15 49.6-27.63 49.2-28.1 49.2-28.85L49.2-28.85Q49.2-29.85 49.85-30.68 50.5-31.5 51.5-31.5L51.5-31.5Q52.3-31.5 52.67-31 53.05-30.5 53.05-29.8L53.05-29.8Q53.05-28.8 52.37-27.98 51.7-27.15 50.7-27.15L50.7-27.15ZM88.19 0.65Q85.94 0.65 84.24 0.28 82.54-0.1 80.24-0.8L80.24-0.8Q79.24-1.15 78.24-1.43 77.24-1.7 76.39-1.75L76.39-1.75Q75.74-1.8 75.44-1.9 75.14-2 74.34-2.5L74.34-2.5Q74.84-3.15 75.09-3.58 75.34-4 75.49-4.8L75.49-4.8Q76.39-8.8 78.54-19.75 80.69-30.7 80.69-32.15L80.69-32.15Q80.69-33.1 79.64-33.1L79.64-33.1Q78.84-33.1 76.59-32.75L76.59-32.75Q72.64-32.2 71.54-32.2L71.54-32.2Q70.44-32.2 69.92-32.6 69.39-33 69.39-34.05L69.39-34.05Q69.39-34.7 69.64-35.45L69.64-35.45Q70.59-35 71.34-34.85 72.09-34.7 73.84-34.7L73.84-34.7Q75.14-34.7 77.27-34.8 79.39-34.9 80.44-34.95L80.44-34.95Q85.44-35.25 87.49-35.25L87.49-35.25Q96.24-35.25 101.49-31.45 106.74-27.65 106.74-18.9L106.74-18.9Q106.74-12.95 104.27-8.5 101.79-4.05 97.57-1.7 93.34 0.65 88.19 0.65L88.19 0.65ZM88.19-1.5Q92.54-1.5 96.12-3.78 99.69-6.05 101.79-10.1 103.89-14.15 103.89-19.3L103.89-19.3Q103.89-27 99.37-30.2 94.84-33.4 87.69-33.4L87.69-33.4Q85.59-33.4 84.79-33.1 83.99-32.8 83.79-31.95L83.79-31.95Q81.39-20 78.94-7.35L78.94-7.35Q78.59-5.8 78.59-5.25L78.59-5.25Q78.59-4.6 79.44-4.05L79.44-4.05Q81.09-2.9 83.44-2.2 85.79-1.5 88.19-1.5L88.19-1.5ZM133.44-11.95Q134.34-11.8 134.34-10.95L134.34-10.95Q134.34-8.95 131.77-6.28 129.19-3.6 125.69-1.68 122.19 0.25 119.84 0.25L119.84 0.25Q117.59 0.25 115.94-0.93 114.29-2.1 113.42-3.55 112.54-5 112.54-5.7L112.54-5.7Q113.34-8.55 114.29-13.6L114.29-13.6 114.84-16.4Q115.04-17.4 116.29-18.48 117.54-19.55 119.09-20.28 120.64-21 121.59-21L121.59-21Q122.34-21 123.42-20.53 124.49-20.05 125.32-19.05 126.14-18.05 126.14-16.5L126.14-16.5Q126.14-14.7 124.94-13.1 123.74-11.5 121.39-10.5 119.04-9.5 115.74-9.5L115.74-9.5 115.04-6.15Q115.04-5.7 115.57-4.65 116.09-3.6 117.27-2.75 118.44-1.9 120.24-1.9L120.24-1.9Q122.64-1.9 125.29-3.48 127.94-5.05 130.14-7.4 132.34-9.75 133.44-11.95L133.44-11.95ZM121.19-18.95Q120.59-18.95 119.64-18.45 118.69-17.95 117.92-17.2 117.14-16.45 116.99-15.8L116.99-15.8Q116.49-13.55 116.09-11.25L116.09-11.25Q119.94-11.4 121.89-12.78 123.84-14.15 123.84-15.9L123.84-15.9Q123.84-17.15 122.94-18.05 122.04-18.95 121.19-18.95L121.19-18.95ZM155.54-12.2Q156.04-12.2 156.26-11.78 156.49-11.35 156.49-10.8L156.49-10.8Q156.49-9 154.59-6.25 152.69-3.5 149.76-1.45 146.84 0.6 143.99 0.6L143.99 0.6Q142.19 0.6 141.21-0.3 140.24-1.2 140.24-3.05L140.24-3.05Q140.24-5.6 141.64-9.98 143.04-14.35 144.19-17.25L144.19-17.25Q143.99-17.55 143.79-17.55L143.79-17.55Q143.59-17.55 143.34-17.4L143.34-17.4Q142.44-16.85 140.39-14.95 138.34-13.05 136.39-10.95 134.44-8.85 133.74-7.55L133.74-7.55Q132.94-5.4 132.74-4.83 132.54-4.25 132.34-2.95L132.34-2.95 131.89-0.7Q131.84-0.55 131.79-0.33 131.74-0.1 131.66-0.05 131.59 0 131.44 0L131.44 0Q130.99 0 130.26-0.1 129.54-0.2 129.54-0.4L129.54-0.4Q129.54-1 129.89-2.35 130.24-3.7 130.59-4.8 130.94-5.9 131.14-6.5L131.14-6.5 131.59-7.9Q133.04-12.9 133.56-15.18 134.09-17.45 134.59-20.25L134.59-20.25Q134.64-20.75 135.29-20.75L135.29-20.75Q135.74-20.75 136.31-20.53 136.89-20.3 136.99-19.9L136.99-19.9Q136.79-19 136.26-16.85 135.74-14.7 134.99-12.1L134.99-12.1Q137.89-15.35 141.01-18 144.14-20.65 145.19-20.65L145.19-20.65Q145.69-20.65 146.39-20.15 147.09-19.65 147.24-19.2L147.24-19.2Q145.64-14.9 144.19-9.83 142.74-4.75 142.74-3.15L142.74-3.15Q142.74-1.4 144.74-1.4L144.74-1.4Q147.69-1.4 150.71-4.7 153.74-8 155.54-12.2L155.54-12.2ZM172.89-8.3Q173.14-7.95 173.14-7.45L173.14-7.45Q173.14-7.05 172.99-6.75 172.84-6.45 172.49-6L172.49-6Q171.19-4.45 168.86-2.93 166.54-1.4 163.99-0.45 161.44 0.5 159.54 0.5L159.54 0.5Q157.39 0.5 155.96-0.83 154.54-2.15 154.54-4.8L154.54-4.8Q154.54-8.15 156.94-17.4L156.94-17.4 151.64-17.2Q151.54-17.25 151.36-17.38 151.19-17.5 151.14-17.6L151.14-17.6Q151.29-17.85 151.69-18.6 152.09-19.35 152.39-19.65L152.39-19.65 157.54-19.6Q159.19-25.7 161.34-32.15L161.34-32.15Q162.24-32.85 163.64-33.68 165.04-34.5 165.34-34.5L165.34-34.5Q165.79-34.3 165.89-33.95L165.89-33.95Q164.99-33.6 164.49-33.02 163.99-32.45 163.49-31.15L163.49-31.15Q162.04-27.45 159.99-19.6L159.99-19.6 172.74-19.55 172.79-18.75Q172.79-18.35 172.64-18.2 172.49-18.05 171.94-18L171.94-18Q171.24-17.95 159.44-17.5L159.44-17.5Q157.14-8.1 157.14-4.95L157.14-4.95Q157.14-3.2 157.99-2.38 158.84-1.55 160.59-1.55L160.59-1.55Q165.69-1.55 172.89-8.3L172.89-8.3ZM198.93-11.55Q199.58-11.55 199.58-10.25L199.58-10.25Q199.58-7.95 197.56-5.4 195.53-2.85 192.66-1.13 189.78 0.6 187.38 0.6L187.38 0.6Q185.43 0.6 184.38-0.6 183.33-1.8 183.13-3.7L183.13-3.7Q181.88-1.9 179.98-0.75 178.08 0.4 176.58 0.4L176.58 0.4Q175.28 0.4 174.01-0.48 172.73-1.35 171.93-2.63 171.13-3.9 171.08-5.05L171.08-5.05 173.53-15.15Q173.83-16.35 175.06-17.73 176.28-19.1 178.03-20 179.78-20.9 181.58-20.9L181.58-20.9Q183.88-20.9 185.63-19.35L185.63-19.35Q186.08-20.55 186.31-20.85 186.53-21.15 186.98-21.2L186.98-21.2 189.43-21.45 189.58-21.35Q188.58-20.55 188.13-18.85L188.13-18.85Q186.58-13.05 186.01-10.3 185.43-7.55 185.43-5.45L185.43-5.45Q185.43-3.35 185.98-2.38 186.53-1.4 187.83-1.4L187.83-1.4Q189.43-1.4 191.66-2.7 193.88-4 195.88-6.33 197.88-8.65 198.93-11.55L198.93-11.55ZM176.78-1.95Q177.63-1.95 178.86-2.55 180.08-3.15 181.16-4.28 182.23-5.4 182.63-6.85L182.63-6.85 183.58-10.95Q183.78-11.95 184.28-14.18 184.78-16.4 185.08-17.6L185.08-17.6Q183.68-19 181.68-19L181.68-19Q180.13-19 178.88-18.18 177.63-17.35 176.83-16.18 176.03-15 175.83-14.1L175.83-14.1 173.83-5.2Q173.93-3.95 174.83-2.95 175.73-1.95 176.78-1.95L176.78-1.95ZM217.88-14Q218.38-14 218.68-13.53 218.98-13.05 218.98-12.35L218.98-12.35Q218.98-11.45 218.48-10.45L218.48-10.45Q217.08-7.5 214.48-5.03 211.88-2.55 208.86-1.1 205.83 0.35 203.23 0.35L203.23 0.35Q197.93 0.35 197.93-5.8L197.93-5.8Q197.93-10.1 200.28-19.63 202.63-29.15 207.08-44.9L207.08-44.9Q208.03-48.15 209.16-49.7 210.28-51.25 211.73-51.25L211.73-51.25Q212.78-51.25 213.76-50.53 214.73-49.8 215.38-48.3 216.03-46.8 216.03-44.6L216.03-44.6Q216.03-41.05 214.36-35.6 212.68-30.15 209.33-24.1 205.98-18.05 201.28-12.9L201.28-12.9Q200.43-8.5 200.43-6.35L200.43-6.35Q200.43-3.95 201.41-2.93 202.38-1.9 204.13-1.9L204.13-1.9Q206.58-1.9 209.36-3.55 212.13-5.2 214.43-8 216.73-10.8 217.88-14L217.88-14ZM208.38-41.75Q204.18-26.65 202.03-16.7L202.03-16.7Q205.73-21.35 208.41-26.85 211.08-32.35 212.41-37.15 213.73-41.95 213.73-44.7L213.73-44.7Q213.73-46.25 213.28-47.38 212.83-48.5 211.78-48.5L211.78-48.5Q211.18-48.5 210.36-47.25 209.53-46 208.38-41.75L208.38-41.75Z" opacity="1" transform="matrix(1,0,0,1,0,0)" fill="#ffffff" class="undefined-text-0" data-fill-palette-color="primary" id="text-0"></path></svg></g></svg></g></svg></g></svg></g><g transform="matrix(1,0,0,1,65.00418927561843,0)"><svg viewBox="0 0 61.991621448763134 61.99123835246454" height="61.99123835246454" width="61.991621448763134"><g><svg xmlns="http://www.w3.org/2000/svg" xmlns:xlink="http://www.w3.org/1999/xlink" version="1.1" x="0" y="0" viewBox="0 0.000586208887398243 100.00003051757812 99.9994125366211" enable-background="new 0 0 100 100" xml:space="preserve" width="61.991621448763134" height="61.99123835246454" class="icon-icon-0" data-fill-palette-color="accent" id="icon-0"><path d="M60.912 100c-6.387 0-11.583-10.174-11.583-22.679 0-6.41-2.356-7.196-3.38-7.388h-6.113c-1.023 0.191-3.378 0.978-3.378 7.387 0 12.506-5.196 22.68-11.583 22.68-10.113 0-12.814-17.902-14.714-36.238-0.313-3.018-0.583-5.623-0.83-6.573C9 55.919 7.972 54.199 6.782 52.209 3.919 47.423 0 40.869 0 31.469V13.495C0 5.758 14.07 0.011 18.375 0.011c0.524 0 0.782-0.002 1.042-0.005 0.547-0.004 1.088-0.011 3.972 0.005 7.09 0.04 11.406 2.448 14.557 4.206 1.988 1.109 3.424 1.911 4.929 1.911 1.542 0 2.979-0.801 4.967-1.911 3.15-1.758 7.466-4.166 14.557-4.206 2.883-0.017 3.424-0.009 3.972-0.005 0.26 0.003 0.518 0.005 1.042 0.005 4.306 0 18.375 5.747 18.375 13.484v17.974c0 9.4-3.92 15.955-6.782 20.741-1.19 1.99-2.218 3.709-2.549 4.979-0.247 0.95-0.517 3.556-0.829 6.573C73.727 82.098 71.025 100 60.912 100zM39.625 64.934l6.936 0.032c3.544 0.573 7.769 3.183 7.769 12.355C54.329 88.805 59.002 95 60.912 95c6.451 0 8.842-23.069 9.741-31.754 0.36-3.482 0.621-5.999 0.964-7.317 0.511-1.961 1.709-3.965 3.097-6.285 2.706-4.524 6.073-10.155 6.073-18.175V13.495c0-3.434-10.176-8.484-13.375-8.484-0.55 0-0.82-0.003-1.093-0.005C65.787 5 65.23 4.995 62.427 5.011c-5.806 0.033-9.176 1.913-12.149 3.572-2.345 1.308-4.56 2.544-7.365 2.544-2.842 0-5.058-1.236-7.403-2.544-2.973-1.659-6.343-3.54-12.148-3.572C20.556 4.995 20 5 19.467 5.006c-0.272 0.002-0.542 0.005-1.092 0.005C15.176 5.011 5 10.061 5 13.495v17.974c0 8.019 3.367 13.649 6.073 18.173 1.388 2.32 2.586 4.324 3.097 6.286 0.343 1.317 0.604 3.835 0.964 7.317C16.034 71.931 18.424 95 24.875 95c1.911 0 6.583-6.195 6.583-17.68 0-9.173 4.224-11.781 7.768-12.354L39.625 64.934z" fill="#ffffff" data-fill-palette-color="accent"></path><g fill="#4b91f1" data-fill-palette-color="accent"><path d="M35.273 31.952c-0.842 0-1.665-0.426-2.136-1.197-0.72-1.178-0.348-2.717 0.83-3.437l14.792-9.037c1.178-0.72 2.716-0.348 3.437 0.83 0.72 1.178 0.348 2.717-0.83 3.437l-14.792 9.037C36.167 31.833 35.718 31.952 35.273 31.952z" fill="#ffffff" data-fill-palette-color="accent"></path><path d="M39.792 39.347c-0.842 0-1.665-0.426-2.136-1.197-0.72-1.178-0.348-2.717 0.83-3.437l14.791-9.037c1.178-0.72 2.717-0.349 3.438 0.83 0.72 1.178 0.348 2.717-0.83 3.437L41.092 38.98C40.686 39.229 40.236 39.347 39.792 39.347z" fill="#ffffff" data-fill-palette-color="accent"></path><path d="M44.31 46.741c-0.842 0-1.665-0.426-2.136-1.197-0.72-1.178-0.348-2.717 0.83-3.437l14.79-9.037c1.179-0.72 2.717-0.349 3.438 0.83 0.72 1.178 0.348 2.717-0.83 3.437L45.61 46.374C45.204 46.623 44.754 46.741 44.31 46.741z" fill="#ffffff" data-fill-palette-color="accent"></path><path d="M48.826 54.136c-0.842 0-1.665-0.425-2.136-1.196-0.72-1.179-0.348-2.717 0.83-3.437l14.791-9.037c1.179-0.72 2.717-0.349 3.438 0.83 0.72 1.178 0.348 2.717-0.83 3.437L50.127 53.77C49.72 54.018 49.271 54.136 48.826 54.136z" fill="#ffffff" data-fill-palette-color="accent"></path><path d="M97.501 100c-0.842 0-1.664-0.425-2.136-1.196L46.57 18.937c-0.72-1.178-0.348-2.717 0.83-3.437 1.177-0.72 2.717-0.348 3.437 0.83l48.796 79.866c0.72 1.179 0.348 2.717-0.83 3.438C98.396 99.882 97.945 100 97.501 100z" fill="#ffffff" data-fill-palette-color="accent"></path></g></svg></g></svg></g><g></g></svg></g></svg></g></svg></g></svg></g><defs></defs></svg><rect width="320" height="360" fill="none" stroke="none" visibility="hidden"></rect></g></svg></g></svg>